<svg width="420" height="120" viewBox="0 0 420 120" fill="none" xmlns="http://www.w3.org/2000/svg" role="img" aria-label="Konversa">
  <defs>
    <linearGradient id="kvGradH" x1="12" y1="20" x2="108" y2="100" gradientUnits="userSpaceOnUse">
      <stop stop-color="#10b981"/>
      <stop offset="1" stop-color="#047857"/>
    </linearGradient>
  </defs>
  <!-- Isotipo -->
  <g transform="translate(12,12)">
    <path d="M22 8h56a14 14 0 0 1 14 14v34a14 14 0 0 1-14 14H46L29 84a2.6 2.6 0 0 1-4.3-1.9V70h-2.7A14 14 0 0 1 8 56V22A14 14 0 0 1 22 8Z" fill="url(#kvGradH)"/>
    <path d="M28 56 41 43l10 10 18-21" stroke="#fff" stroke-width="6.5" stroke-linecap="round" stroke-linejoin="round" fill="none"/>
    <path d="M61 32h11v11" stroke="#fff" stroke-width="6.5" stroke-linecap="round" stroke-linejoin="round" fill="none"/>
  </g>
  <!-- Wordmark -->
  <text x="128" y="74" font-family="Inter, ui-sans-serif, system-ui, -apple-system, 'Segoe UI', Roboto, sans-serif" font-size="52" font-weight="800" letter-spacing="-1.5" fill="#0f172a">Konversa</text>
</svg>
